:FULLY-SPECIFIED
:FORCE-ALL-JOINTS-BE-3DOF
:DEGREES
815
root 2.5707 16.443 22.8217 -13.8898 53.5253 347.62
lfemur -27.3948 10.271 -15.8776
ltibia 44.239 0 0
lfoot -15.0766 0.949383 0
ltoes 19.9865 0 0
rfemur -32.0605 -14.0276 14.5142
rtibia 48.8899 0 0
rfoot -9.48014 -19.6163 0
rtoes -20.2254 0 0
lowerback 5.66621 2.23788 -2.10417
upperback 1.08238 2.79655 -2.63992
thorax -1.78159 1.40985 -1.47263
lowerneck -5.85853 -5.32707 0.549954
upperneck 1.76922 -7.26663 4.40282
head 1.77906 -3.48779 1.07135
lclavicle -2.98308e-15 8.08251e-15 0
lhumerus -47.7593 -15.5443 89.1391
lradius 64.676 0 0
lwrist 16.8001 0 0
lhand -9.98531 -1.61203 0
lfingers 7.12502 0 0
lthumb 15.9586 27.2174 0
rclavicle -2.98308e-15 8.08251e-15 0
rhumerus -38.6055 29.306 -88.5891
rradius 68.5693 0 0
rwrist 4.71824 0 0
rhand -16.4252 -24.1401 0
rfingers 7.12502 0 0
rthumb 9.78165 -773.717 0
816
root 2.60588 16.4462 22.979 -13.9042 52.6552 347.889
lfemur -27.0521 10.1661 -15.9436
ltibia 44.0122 0 0
lfoot -14.8241 0.223848 0
ltoes 20.1352 0 0
rfemur -32.6714 -13.7075 14.2581
rtibia 48.7762 0 0
rfoot -9.16633 -19.1444 0
rtoes -20.0387 0 0
lowerback 5.8336 2.14745 -2.1495
upperback 1.15552 2.6697 -2.59694
thorax -1.80212 1.34643 -1.39621
lowerneck -5.87791 -5.27866 0.594991
upperneck 1.92593 -7.21247 4.37669
head 1.83036 -3.45793 1.05527
lclavicle -3.39757e-15 8.35242e-15 0
lhumerus -47.4622 -15.6891 88.9287
lradius 64.456 0 0
lwrist 16.9415 0 0
lhand -9.56495 -1.48504 0
lfingers 7.12502 0 0
lthumb 16.3626 27.3039 0
rclavicle -3.39757e-15 8.35242e-15 0
rhumerus -38.8972 28.6095 -87.7018
rradius 68.1426 0 0
rwrist 4.67416 0 0
rhand -16.1475 -24.2889 0
rfingers 7.12502 0 0
rthumb 10.0494 -773.852 0
817
root 2.6412 16.4495 23.1371 -13.9195 51.7817 348.159
lfemur -26.7081 10.0614 -16.0101
ltibia 43.7846 0 0
lfoot -14.571 -0.503892 0
ltoes 20.2839 0 0
rfemur -33.2858 -13.387 14.0025
rtibia 48.6633 0 0
rfoot -8.85109 -18.67 0
rtoes -19.8518 0 0
lowerback 6.00193 2.05664 -2.19523
upperback 1.22904 2.54226 -2.5539
thorax -1.82278 1.28272 -1.31947
lowerneck -5.89739 -5.23002 0.640203
upperneck 2.08302 -7.15805 4.35052
head 1.88179 -3.42793 1.03914
lclavicle -3.81036e-15 8.62121e-15 0
lhumerus -47.1638 -15.8351 88.7174
lradius 64.2355 0 0
lwrist 17.0834 0 0
lhand -9.14231 -1.35737 0
lfingers 7.12502 0 0
lthumb 16.7687 27.3909 0
rclavicle -3.81036e-15 8.62121e-15 0
rhumerus -39.1899 27.9089 -86.8105
rradius 67.7145 0 0
rwrist 4.62924 0 0
rhand -15.8694 -24.438 0
rfingers 7.12502 0 0
rthumb 10.3176 -773.987 0
818
root 2.67664 16.4527 23.2957 -13.9355 50.9055 348.429
lfemur -26.3629 9.95675 -16.0772
ltibia 43.5565 0 0
lfoot -14.3174 -1.23328 0
ltoes 20.4323 0 0
rfemur -33.9035 -13.0663 13.7479
rtibia 48.5516 0 0
rfoot -8.53461 -18.1933 0
rtoes -19.6649 0 0
lowerback 6.17113 1.96549 -2.24133
upperback 1.3029 2.41431 -2.51085
thorax -1.84355 1.21874 -1.24245
lowerneck -5.91697 -5.18119 0.685561
upperneck 2.24036 -7.10339 4.32432
head 1.93331 -3.3978 1.02299
lclavicle -4.22059e-15 8.88862e-15 0
lhumerus -46.8642 -15.9821 88.5055
lradius 64.0147 0 0
lwrist 17.2259 0 0
lhand -8.71765 -1.22908 0
lfingers 7.12502 0 0
lthumb 17.1768 27.4782 0
rclavicle -4.22059e-15 8.88862e-15 0
rhumerus -39.4835 27.2048 -85.9156
rradius 67.2854 0 0
rwrist 4.58346 0 0
rhand -15.5911 -24.5875 0
rfingers 7.12502 0 0
rthumb 10.586 -774.122 0
819
root 2.71219 16.4559 23.4547 -13.9522 50.0271 348.7
lfemur -26.0167 9.8524 -16.1447
ltibia 43.3279 0 0
lfoot -14.0636 -1.96377 0
ltoes 20.5803 0 0
rfemur -34.524 -12.7457 13.4944
rtibia 48.4411 0 0
rfoot -8.21709 -17.7145 0
rtoes -19.4782 0 0
lowerback 6.34108 1.87407 -2.28779
upperback 1.37706 2.28592 -2.46781
thorax -1.86442 1.15456 -1.16522
lowerneck -5.93663 -5.13218 0.731032
upperneck 2.39784 -7.04852 4.29811
head 1.98488 -3.36757 1.00682
lclavicle -4.62741e-15 9.1544e-15 0
lhumerus -46.5637 -16.1301 88.2931
lradius 63.7938 0 0
lwrist 17.3689 0 0
lhand -8.29122 -1.10023 0
lfingers 7.12502 0 0
lthumb 17.5866 27.5658 0
rclavicle -4.62741e-15 9.1544e-15 0
rhumerus -39.7776 26.4975 -85.0178
rradius 66.8556 0 0
rwrist 4.53679 0 0
rhand -15.3128 -24.7373 0
rfingers 7.12502 0 0
rthumb 10.8543 -774.257 0
820
root 2.74781 16.4591 23.6142 -13.9695 49.1471 348.971
lfemur -25.6697 9.74841 -16.2126
ltibia 43.0992 0 0
lfoot -13.8097 -2.69479 0
ltoes 20.7276 0 0
rfemur -35.1471 -12.4255 13.2425
rtibia 48.3321 0 0
rfoot -7.89874 -17.2338 0
rtoes -19.2918 0 0
lowerback 6.51169 1.78244 -2.33459
upperback 1.45148 2.15718 -2.42484
thorax -1.88538 1.09019 -1.08782
lowerneck -5.95637 -5.08304 0.776589
upperneck 2.55532 -6.99348 4.27191
head 2.03645 -3.33726 0.99064
lclavicle -5.02997e-15 9.41826e-15 0
lhumerus -46.2625 -16.2791 88.0803
lradius 63.5729 0 0
lwrist 17.5123 0 0
lhand -7.86329 -0.970912 0
lfingers 7.12502 0 0
lthumb 17.9978 27.6536 0
rclavicle -5.02997e-15 9.41826e-15 0
rhumerus -40.0723 25.7874 -84.1176
rradius 66.4254 0 0
rwrist 4.48921 0 0
rhand -15.0348 -24.8871 0
rfingers 7.12502 0 0
rthumb 11.1224 -774.393 0
821
root 2.78348 16.4623 23.7739 -13.9874 48.2661 349.242
lfemur -25.3222 9.64485 -16.281
ltibia 42.8703 0 0
lfoot -13.556 -3.4258 0
ltoes 20.874 0 0
rfemur -35.7723 -12.1059 12.9923
rtibia 48.2247 0 0
rfoot -7.57976 -16.7516 0
rtoes -19.1061 0 0
lowerback 6.68287 1.69066 -2.38172
upperback 1.52611 2.02817 -2.38196
thorax -1.90642 1.0257 -1.01031
lowerneck -5.97617 -5.03379 0.822199
upperneck 2.71268 -6.9383 4.24574
head 2.08799 -3.30687 0.974467
lclavicle -5.42741e-15 9.67996e-15 0
lhumerus -45.9607 -16.429 87.8673
lradius 63.3523 0 0
lwrist 17.6559 0 0
lhand -7.43409 -0.841181 0
lfingers 7.12502 0 0
lthumb 18.4103 27.7416 0
rclavicle -5.42741e-15 9.67996e-15 0
rhumerus -40.3671 25.0749 -83.2156
rradius 65.9952 0 0
rwrist 4.44069 0 0
rhand -14.7573 -25.0369 0
rfingers 7.12502 0 0
rthumb 11.39 -774.528 0
822
root 2.81918 16.4656 23.9337 -14.0059 47.3847 349.512
lfemur -24.9744 9.54181 -16.3497
ltibia 42.6416 0 0
lfoot -13.3026 -4.15623 0
ltoes 21.0194 0 0
rfemur -36.3994 -11.7873 12.7442
rtibia 48.1191 0 0
rfoot -7.26034 -16.268 0
rtoes -18.921 0 0
lowerback 6.85452 1.5988 -2.42915
upperback 1.60091 1.89898 -2.33921
thorax -1.92751 0.961107 -0.932736
lowerneck -5.99603 -4.98446 0.867834
upperneck 2.86979 -6.883 4.21963
head 2.13946 -3.27644 0.958312
lclavicle -5.81888e-15 9.93921e-15 0
lhumerus -45.6586 -16.5797 87.6542
lradius 63.1321 0 0
lwrist 17.7998 0 0
lhand -7.00389 -0.711109 0
lfingers 7.12502 0 0
lthumb 18.8236 27.8297 0
rclavicle -5.81888e-15 9.93921e-15 0
rhumerus -40.6619 24.3604 -82.3125
rradius 65.5653 0 0
rwrist 4.39121 0 0
rhand -14.4806 -25.1866 0
rfingers 7.12502 0 0
rthumb 11.6568 -774.664 0
823
root 2.85487 16.4688 24.0936 -14.0249 46.5034 349.783
lfemur -24.6265 9.43937 -16.4187
ltibia 42.413 0 0
lfoot -13.0498 -4.88554 0
ltoes 21.1636 0 0
rfemur -37.028 -11.4699 12.4985
rtibia 48.0155 0 0
rfoot -6.94068 -15.7834 0
rtoes -18.7369 0 0
lowerback 7.02655 1.5069 -2.47687
upperback 1.67584 1.76967 -2.29664
thorax -1.94866 0.896467 -0.855152
lowerneck -6.01593 -4.93508 0.913462
upperneck 3.02653 -6.82763 4.19358
head 2.1908 -3.24597 0.942185
lclavicle -6.20353e-15 1.01958e-14 0
lhumerus -45.3563 -16.7312 87.4412
lradius 62.9124 0 0
lwrist 17.9438 0 0
lhand -6.57295 -0.580766 0
lfingers 7.12502 0 0
lthumb 19.2377 27.9179 0
rclavicle -6.20353e-15 1.01958e-14 0
rhumerus -40.9566 23.6442 -81.4087
rradius 65.1359 0 0
rwrist 4.34076 0 0
rhand -14.2049 -25.3361 0
rfingers 7.12502 0 0
rthumb 11.9226 -774.799 0
824
root 2.89055 16.472 24.2535 -14.0444 45.6229 350.053
lfemur -24.2787 9.33762 -16.488
ltibia 42.185 0 0
lfoot -12.7977 -5.61316 0
ltoes 21.3065 0 0
rfemur -37.6578 -11.154 12.2555
rtibia 47.9141 0 0
rfoot -6.62099 -15.2981 0
rtoes -18.5539 0 0
lowerback 7.19887 1.41504 -2.52486
upperback 1.75085 1.64035 -2.25428
thorax -1.96985 0.831815 -0.777612
lowerneck -6.03586 -4.88568 0.959054
upperneck 3.18277 -6.77221 4.16763
head 2.242 -3.21548 0.926099
lclavicle -6.58049e-15 1.04493e-14 0
lhumerus -45.0541 -16.8833 87.2284
lradius 62.6936 0 0
lwrist 18.0878 0 0
lhand -6.14151 -0.450223 0
lfingers 7.12502 0 0
lthumb 19.6523 28.0062 0
rclavicle -6.58049e-15 1.04493e-14 0
rhumerus -41.2508 22.9269 -80.5049
rradius 64.7075 0 0
rwrist 4.28929 0 0
rhand -13.9306 -25.4853 0
rfingers 7.12502 0 0
rthumb 12.1872 -774.934 0
825
root 2.92617 16.4751 24.4131 -14.0643 44.7437 350.322
lfemur -23.9313 9.23663 -16.5575
ltibia 41.9575 0 0
lfoot -12.5466 -6.33855 0
ltoes 21.4477 0 0
rfemur -38.2884 -10.8398 12.0154
rtibia 47.8151 0 0
rfoot -6.30146 -14.8121 0
rtoes -18.3723 0 0
lowerback 7.37137 1.32328 -2.5731
upperback 1.8259 1.51108 -2.21216
thorax -1.99107 0.767194 -0.700167
lowerneck -6.05582 -4.83629 1.00458
upperneck 3.33838 -6.71678 4.14178
head 2.29299 -3.185 0.910066
lclavicle -6.94893e-15 1.06997e-14 0
lhumerus -44.7521 -17.0362 87.016
lradius 62.4757 0 0
lwrist 18.2318 0 0
lhand -5.70984 -0.319548 0
lfingers 7.12502 0 0
lthumb 20.067 28.0944 0
rclavicle -6.94893e-15 1.06997e-14 0
rhumerus -41.5444 22.2087 -79.6017
rradius 64.2804 0 0
rwrist 4.23679 0 0
rhand -13.6577 -25.6339 0
rfingers 7.12502 0 0
rthumb 12.4503 -775.069 0
826
root 2.96172 16.4783 24.5726 -14.0845 43.8664 350.591
lfemur -23.5845 9.1365 -16.6272
ltibia 41.7307 0 0
lfoot -12.2966 -7.06114 0
ltoes 21.5871 0 0
rfemur -38.9195 -10.5277 11.7787
rtibia 47.7186 0 0
rfoot -5.9823 -14.3259 0
rtoes -18.1921 0 0
lowerback 7.54396 1.23167 -2.62158
upperback 1.90096 1.38195 -2.17034
thorax -2.01229 0.702643 -0.62287
lowerneck -6.07578 -4.78694 1.05001
upperneck 3.49324 -6.66136 4.11607
head 2.34374 -3.15454 0.894098
lclavicle -7.30798e-15 1.09465e-14 0
lhumerus -44.4506 -17.1896 86.8041
lradius 62.259 0 0
lwrist 18.3756 0 0
lhand -5.27818 -0.188811 0
lfingers 7.12502 0 0
lthumb 20.4817 28.1825 0
rclavicle -7.30798e-15 1.09465e-14 0
rhumerus -41.8373 21.49 -78.6996
rradius 63.8548 0 0
rwrist 4.18323 0 0
rhand -13.3867 -25.782 0
rfingers 7.12502 0 0
rthumb 12.7116 -775.203 0
827
root 2.99718 16.4814 24.7316 -14.1051 42.9916 350.859
lfemur -23.2385 9.0373 -16.697
ltibia 41.5048 0 0
lfoot -12.0479 -7.78039 0
ltoes 21.7247 0 0
rfemur -39.5507 -10.2179 11.5455
rtibia 47.6248 0 0
rfoot -5.66369 -13.8397 0
rtoes -18.0136 0 0
lowerback 7.71655 1.14027 -2.67027
upperback 1.97596 1.25305 -2.12884
thorax -2.03352 0.638205 -0.545772
lowerneck -6.09575 -4.73766 1.09531
upperneck 3.64722 -6.60599 4.0905
head 2.39421 -3.12412 0.878205
lclavicle -7.65679e-15 1.11896e-14 0
lhumerus -44.1496 -17.3435 86.5929
lradius 62.0436 0 0
lwrist 18.5193 0 0
lhand -4.8468 -0.0580813 0
lfingers 7.12502 0 0
lthumb 20.8962 28.2706 0
rclavicle -7.65679e-15 1.11896e-14 0
rhumerus -42.1291 20.7713 -77.7992
rradius 63.4312 0 0
rwrist 4.12859 0 0
rhand -13.1177 -25.9294 0
rfingers 7.12502 0 0
rthumb 12.971 -775.336 0
